<?xml version="1.0" encoding="utf-8"?>
<!-- Generator: Adobe Illustrator 26.0.2, SVG Export Plug-In . SVG Version: 6.00 Build 0)  -->
<svg version="1.1" id="Layer_1" xmlns="http://www.w3.org/2000/svg" xmlns:xlink="http://www.w3.org/1999/xlink" x="0px" y="0px"
	 viewBox="0 0 148 295" style="enable-background:new 0 0 148 295;" xml:space="preserve">
<style type="text/css">
	.st0{fill:none;stroke:#000000;stroke-width:5;stroke-linecap:round;}
	.st1{fill:none;stroke:#F75040;stroke-width:8;}
	.st2{fill:none;stroke:#83271E;stroke-width:8;}
	.st3{fill:#FFFFFF;}
	.st4{fill:none;stroke:#000000;}
</style>
<path class="st0" d="M113.6,57.6c0.5,2,5.2,28.6,4.9,30.7c-0.3,2.8-3.2,5.7-4.9,8c-4.1,5.3-9.8,10.3-11.8,16.5
	c-1.3,4.1,1.2,7.6,6,8.5c8.4,1.6,16.7-0.2,23.2-4.9c9.8-7,0.9-18.9-5.6-25.7C121.3,86.5,114.9,63.1,113.6,57.6z M113.6,57.6l-2-13.4
	l-1.1-24.4V2.8"/>
<path d="M113.8,83l8.4-3.4c0.7-0.3,1.5,0,1.9,0.6l0,0c0.4,0.6,0.2,1.3-0.5,1.6l-8.4,3.4c-0.7,0.3-1.5,0-1.9-0.6l0,0
	C112.9,84,113.2,83.3,113.8,83z"/>
<path d="M113.3,80l8.4-3.4c0.7-0.3,1.5,0,1.9,0.6l0,0c0.4,0.6,0.2,1.3-0.5,1.6l-8.4,3.4c-0.7,0.3-1.5,0-1.9-0.6l0,0
	C112.4,81,112.6,80.3,113.3,80z"/>
<path d="M112.6,77l8.4-3.4c0.7-0.3,1.5,0,1.9,0.6l0,0c0.4,0.6,0.2,1.3-0.5,1.6l-8.4,3.4c-0.7,0.3-1.5,0-1.9-0.6l0,0
	C111.7,78,111.9,77.3,112.6,77z"/>
<path d="M111.8,74.1l8.4-3.4c0.7-0.3,1.5,0,1.9,0.6l0,0c0.4,0.6,0.2,1.3-0.5,1.6l-8.4,3.4c-0.7,0.3-1.5,0-1.9-0.6l0,0
	C111,75,111.2,74.3,111.8,74.1z"/>
<line class="st1" x1="4" y1="1.8" x2="4" y2="295"/>
<line class="st2" x1="11.8" y1="1.8" x2="11.8" y2="295"/>
<line class="st1" x1="125.8" y1="4" x2="0" y2="4"/>
<rect x="112" y="139" width="17" height="60"/>
<circle class="st3" cx="120.5" cy="115.5" r="27.5"/>
<line class="st4" x1="112.5" y1="198.1" x2="107.5" y2="241.1"/>
<line class="st4" x1="128.5" y1="197.9" x2="134.5" y2="240.9"/>
<line class="st4" x1="112.5" y1="150.1" x2="100.5" y2="190.1"/>
<line class="st4" x1="128.5" y1="149.9" x2="139.5" y2="189.9"/>
<line class="st4" x1="104.4" y1="106.7" x2="112.3" y2="115.7"/>
<line class="st4" x1="103.7" y1="115.5" x2="112.7" y2="107.6"/>
<line class="st4" x1="128.4" y1="106.7" x2="136.3" y2="115.7"/>
<line class="st4" x1="127.7" y1="115.5" x2="136.7" y2="107.6"/>
</svg>
